#N canvas -7 520 958 468 10;
#X text 748 11 ............................;
#X text 748 21 . ____ ._____ _ .......___ .;
#X text 748 31 .| __ )| ____| |....../ _ |.;
#X text 748 51 .| |_) | |___| |___ / ___ |.;
#X text 748 61 .|____/|_____|_____/_/..._|.io;
#X text 748 71 ............................;
#X text 748 41 .| __ || __|.| |...../ _| |.;
#X obj 245 624 dac~;
#X obj 34 38 loadbang;
#X obj 34 80 s bela_setTrill;
#X msg 34 59 new square 1 SQUARE;
#X floatatom 116 257 5 0 5 0 - - -;
#X obj 116 235 * 5;
#X obj 401 81 + 2500;
#X obj 196 141 s xVal;
#X obj 401 60 * 3500;
#X obj 223 121 s yVal;
#X obj 169 39 r bela_trill;
#X obj 169 60 route square;
#X obj 169 81 unpack f f f f;
#X obj 169 161 s touches;
#X obj 250 101 s touchSize;
#X obj 401 39 r xVal;
#X obj 116 213 r yVal;
#X obj 116 410 bng 15 250 50 0 empty empty empty 17 7 0 10 -262144
-1 -1;
#X obj 167 410 bng 15 250 50 0 empty empty empty 17 7 0 10 -262144
-1 -1;
#X obj 218 410 bng 15 250 50 0 empty empty empty 17 7 0 10 -262144
-1 -1;
#X obj 269 410 bng 15 250 50 0 empty empty empty 17 7 0 10 -262144
-1 -1;
#X msg 116 436 0;
#X msg 218 436 12;
#X msg 269 436 16;
#X msg 167 435 7;
#N canvas 318 208 331 455 strum 0;
#X obj 49 150 change;
#X obj 49 126 int;
#X floatatom 49 204 5 0 0 0 - - -;
#X floatatom 49 310 5 0 0 0 - - -;
#X floatatom 94 311 5 0 0 0 - - -;
#X obj 49 257 t f f;
#X obj 49 286 moses;
#X obj 94 331 - 1;
#X obj 49 227 + 1;
#X text 103 149 Only float when value changed;
#X text 99 260 Increasing numbers right outlet;
#X text 100 276 Decreasing numbers left outlet;
#X text 80 126 Float-to-integer;
#X obj 49 42 inlet;
#X obj 49 421 outlet;
#X obj 93 421 outlet;
#X obj 137 421 outlet;
#X obj 181 421 outlet;
#X obj 49 390 route 1 2 3 4, f 30;
#X connect 0 0 2 0;
#X connect 1 0 0 0;
#X connect 2 0 8 0;
#X connect 3 0 18 0;
#X connect 4 0 7 0;
#X connect 5 0 6 1;
#X connect 5 1 6 0;
#X connect 6 0 3 0;
#X connect 6 1 4 0;
#X connect 7 0 18 0;
#X connect 8 0 5 0;
#X connect 13 0 1 0;
#X connect 18 0 14 0;
#X connect 18 1 15 0;
#X connect 18 2 16 0;
#X connect 18 3 17 0;
#X restore 116 324 pd strum;
#X f 26;
#N canvas 639 793 282 190 string4 0;
#N canvas 505 62 515 634 DelayLoop 0;
#X obj 172 262 noise~;
#X obj 172 296 *~, f 7;
#X msg 218 235 0;
#X obj 218 72 mtof;
#X obj 218 95 expr 1000 / $f1;
#X obj 173 596 outlet~;
#X obj 172 363 *~ 0.99;
#X obj 218 30 inlet;
#X text 64 408 Low-pass filter;
#X obj 173 407 lop~ 5000, f 13;
#X text 42 364 Loop decay (x < 1);
#X obj 351 525 / 127;
#X obj 218 147 t b b, f 7;
#X msg 264 235 1;
#X obj 172 551 *~, f 16;
#X obj 218 118 t b f, f 11;
#X obj 351 488 inlet;
#X obj 224 178 inlet;
#X obj 218 211 del 10;
#X obj 203 444 outlet~;
#X obj 358 329 inlet~;
#X obj 292 163 outlet;
#X text 144 30 1 MIDI in;
#X text 49 178 2 NOISE BURST LENGTH in;
#X text 249 488 3 VELOCITY in;
#X text 230 597 1 SIGNAL out;
#X text 259 445 2 DELAYWRITE out;
#X text 339 163 3 DELAYREAD out;
#X text 249 329 4 DELAYREAD in;
#X obj 261 384 inlet;
#X text 180 384 3 LOPASS in;
#X connect 0 0 1 0;
#X connect 1 0 6 0;
#X connect 2 0 1 1;
#X connect 3 0 4 0;
#X connect 4 0 15 0;
#X connect 6 0 9 0;
#X connect 7 0 3 0;
#X connect 9 0 14 0;
#X connect 9 0 19 0;
#X connect 11 0 14 1;
#X connect 12 0 18 0;
#X connect 12 1 13 0;
#X connect 13 0 1 1;
#X connect 14 0 5 0;
#X connect 15 0 12 0;
#X connect 15 1 21 0;
#X connect 16 0 11 0;
#X connect 17 0 18 1;
#X connect 18 0 2 0;
#X connect 20 0 6 0;
#X connect 29 0 9 1;
#X restore 46 107 pd DelayLoop;
#X f 13;
#X obj 90 136 delwrite~ del4 500;
#X obj 149 107 delread4~ del4;
#X obj 46 160 outlet~;
#X obj 46 12 inlet;
#X obj 95 39 r KSInfo;
#X obj 64 69 unpack f f f;
#X obj 64 45 bng 15 250 50 0 empty empty empty 17 7 0 10 -262144 -1
-1;
#X connect 0 0 3 0;
#X connect 0 1 1 0;
#X connect 0 2 2 0;
#X connect 2 0 0 4;
#X connect 4 0 7 0;
#X connect 4 0 0 0;
#X connect 5 0 6 0;
#X connect 6 0 0 1;
#X connect 6 1 0 2;
#X connect 6 2 0 3;
#X connect 7 0 6 0;
#X restore 269 493 pd string4;
#N canvas 649 565 296 205 string3 0;
#N canvas 505 62 515 634 DelayLoop 0;
#X obj 172 262 noise~;
#X obj 172 296 *~, f 7;
#X msg 218 235 0;
#X obj 218 72 mtof;
#X obj 218 95 expr 1000 / $f1;
#X obj 173 596 outlet~;
#X obj 172 363 *~ 0.99;
#X obj 218 30 inlet;
#X text 64 408 Low-pass filter;
#X obj 173 407 lop~ 5000, f 13;
#X text 42 364 Loop decay (x < 1);
#X obj 351 525 / 127;
#X obj 218 147 t b b, f 7;
#X msg 264 235 1;
#X obj 172 551 *~, f 16;
#X obj 218 118 t b f, f 11;
#X obj 351 488 inlet;
#X obj 224 178 inlet;
#X obj 218 211 del 10;
#X obj 203 444 outlet~;
#X obj 358 329 inlet~;
#X obj 292 163 outlet;
#X text 144 30 1 MIDI in;
#X text 49 178 2 NOISE BURST LENGTH in;
#X text 249 488 3 VELOCITY in;
#X text 230 597 1 SIGNAL out;
#X text 259 445 2 DELAYWRITE out;
#X text 339 163 3 DELAYREAD out;
#X text 249 329 4 DELAYREAD in;
#X obj 261 384 inlet;
#X text 180 384 3 LOPASS in;
#X connect 0 0 1 0;
#X connect 1 0 6 0;
#X connect 2 0 1 1;
#X connect 3 0 4 0;
#X connect 4 0 15 0;
#X connect 6 0 9 0;
#X connect 7 0 3 0;
#X connect 9 0 14 0;
#X connect 9 0 19 0;
#X connect 11 0 14 1;
#X connect 12 0 18 0;
#X connect 12 1 13 0;
#X connect 13 0 1 1;
#X connect 14 0 5 0;
#X connect 15 0 12 0;
#X connect 15 1 21 0;
#X connect 16 0 11 0;
#X connect 17 0 18 1;
#X connect 18 0 2 0;
#X connect 20 0 6 0;
#X connect 29 0 9 1;
#X restore 45 105 pd DelayLoop;
#X f 13;
#X obj 88 134 delwrite~ del3 500;
#X obj 148 105 delread4~ del3;
#X obj 46 161 outlet~;
#X obj 45 18 inlet;
#X obj 94 45 r KSInfo;
#X obj 63 75 unpack f f f;
#X obj 63 51 bng 15 250 50 0 empty empty empty 17 7 0 10 -262144 -1
-1;
#X connect 0 0 3 0;
#X connect 0 1 1 0;
#X connect 0 2 2 0;
#X connect 2 0 0 4;
#X connect 4 0 7 0;
#X connect 4 0 0 0;
#X connect 5 0 6 0;
#X connect 6 0 0 1;
#X connect 6 1 0 2;
#X connect 6 2 0 3;
#X connect 7 0 6 0;
#X restore 218 514 pd string3;
#N canvas 301 705 326 189 string2 0;
#N canvas 797 37 515 634 DelayLoop 0;
#X obj 172 262 noise~;
#X obj 172 296 *~, f 7;
#X msg 218 235 0;
#X obj 218 72 mtof;
#X obj 218 95 expr 1000 / $f1;
#X obj 173 596 outlet~;
#X obj 172 363 *~ 0.99;
#X obj 218 30 inlet;
#X text 64 408 Low-pass filter;
#X obj 173 407 lop~ 5000, f 13;
#X text 42 364 Loop decay (x < 1);
#X obj 351 525 / 127;
#X obj 218 147 t b b, f 7;
#X msg 264 235 1;
#X obj 172 551 *~, f 16;
#X obj 218 118 t b f, f 11;
#X obj 351 488 inlet;
#X obj 224 178 inlet;
#X obj 218 211 del 10;
#X obj 203 444 outlet~;
#X obj 358 329 inlet~;
#X obj 292 163 outlet;
#X text 144 30 1 MIDI in;
#X text 49 178 2 NOISE BURST LENGTH in;
#X text 249 488 3 VELOCITY in;
#X text 230 597 1 SIGNAL out;
#X text 259 445 2 DELAYWRITE out;
#X text 339 163 3 DELAYREAD out;
#X text 249 329 4 DELAYREAD in;
#X obj 261 384 inlet;
#X text 180 384 3 LOPASS in;
#X connect 0 0 1 0;
#X connect 1 0 6 0;
#X connect 2 0 1 1;
#X connect 3 0 4 0;
#X connect 4 0 15 0;
#X connect 6 0 9 0;
#X connect 7 0 3 0;
#X connect 9 0 14 0;
#X connect 9 0 19 0;
#X connect 11 0 14 1;
#X connect 12 0 18 0;
#X connect 12 1 13 0;
#X connect 13 0 1 1;
#X connect 14 0 5 0;
#X connect 15 0 12 0;
#X connect 15 1 21 0;
#X connect 16 0 11 0;
#X connect 17 0 18 1;
#X connect 18 0 2 0;
#X connect 20 0 6 0;
#X connect 29 0 9 1;
#X restore 46 99 pd DelayLoop;
#X f 13;
#X obj 89 128 delwrite~ del2 500;
#X obj 149 99 delread4~ del2;
#X obj 47 154 outlet~;
#X obj 46 14 inlet;
#X obj 95 41 r KSInfo;
#X obj 64 71 unpack f f f;
#X obj 64 47 bng 15 250 50 0 empty empty empty 17 7 0 10 -262144 -1
-1;
#X connect 0 0 3 0;
#X connect 0 1 1 0;
#X connect 0 2 2 0;
#X connect 2 0 0 4;
#X connect 4 0 7 0;
#X connect 4 0 0 0;
#X connect 5 0 6 0;
#X connect 6 0 0 1;
#X connect 6 1 0 2;
#X connect 6 2 0 3;
#X connect 7 0 6 0;
#X restore 167 537 pd string2;
#N canvas 216 581 288 181 string1 0;
#X obj 76 127 delwrite~ del1 500;
#X obj 137 98 delread4~ del1;
#N canvas 307 25 515 634 DelayLoop 0;
#X obj 172 262 noise~;
#X obj 172 296 *~, f 7;
#X msg 218 235 0;
#X obj 218 72 mtof;
#X obj 218 95 expr 1000 / $f1;
#X obj 173 596 outlet~;
#X obj 172 363 *~ 0.99;
#X obj 218 30 inlet;
#X text 64 408 Low-pass filter;
#X obj 173 407 lop~ 5000, f 13;
#X text 42 364 Loop decay (x < 1);
#X obj 351 525 / 127;
#X obj 218 147 t b b, f 7;
#X msg 264 235 1;
#X obj 172 551 *~, f 16;
#X obj 218 118 t b f, f 11;
#X obj 351 488 inlet;
#X obj 224 178 inlet;
#X obj 218 211 del 10;
#X obj 203 444 outlet~;
#X obj 358 329 inlet~;
#X obj 292 163 outlet;
#X text 144 30 1 MIDI in;
#X text 49 178 2 NOISE BURST LENGTH in;
#X text 249 488 3 VELOCITY in;
#X text 230 597 1 SIGNAL out;
#X text 259 445 2 DELAYWRITE out;
#X text 339 163 3 DELAYREAD out;
#X text 249 329 4 DELAYREAD in;
#X obj 261 384 inlet;
#X text 180 384 3 LOPASS in;
#X connect 0 0 1 0;
#X connect 1 0 6 0;
#X connect 2 0 1 1;
#X connect 3 0 4 0;
#X connect 4 0 15 0;
#X connect 6 0 9 0;
#X connect 7 0 3 0;
#X connect 9 0 14 0;
#X connect 9 0 19 0;
#X connect 11 0 14 1;
#X connect 12 0 18 0;
#X connect 12 1 13 0;
#X connect 13 0 1 1;
#X connect 14 0 5 0;
#X connect 15 0 12 0;
#X connect 15 1 21 0;
#X connect 16 0 11 0;
#X connect 17 0 18 1;
#X connect 18 0 2 0;
#X connect 20 0 6 0;
#X connect 29 0 9 1;
#X restore 33 98 pd DelayLoop;
#X f 13;
#X obj 33 12 inlet;
#X obj 33 151 outlet~;
#X obj 82 39 r KSInfo;
#X obj 51 69 unpack f f f;
#X obj 51 45 bng 15 250 50 0 empty empty empty 17 7 0 10 -262144 -1
-1;
#X connect 1 0 2 4;
#X connect 2 0 4 0;
#X connect 2 1 0 0;
#X connect 2 2 1 0;
#X connect 3 0 2 0;
#X connect 3 0 7 0;
#X connect 5 0 6 0;
#X connect 6 0 2 1;
#X connect 6 1 2 2;
#X connect 6 2 2 3;
#X connect 7 0 6 0;
#X restore 116 559 pd string1;
#X obj 116 457 + 40;
#X obj 167 457 + 40;
#X obj 218 457 + 40;
#X obj 269 457 + 40;
#X obj 401 203 s KSInfo;
#X obj 401 168 pack f f f;
#X obj 95 839 dac~ 6;
#X obj 244 598 *~ 1;
#X obj 452 95 loadbang;
#X obj 401 136 bng 15 250 50 0 empty empty empty 17 7 0 10 -262144
-1 -1;
#X msg 452 117 10 5000 100;
#X obj 401 102 t b f;
#N canvas 1620 234 246 207 vline_curve 0;
#X obj 33 100 vline~;
#X obj 33 25 inlet;
#X obj 49 50 inlet;
#X obj 66 75 inlet;
#X obj 33 130 pow~ 2;
#X obj 32 159 outlet~;
#X obj 101 113 sig~;
#X obj 101 25 loadbang;
#X msg 101 51 2;
#X connect 0 0 4 0;
#X connect 1 0 0 0;
#X connect 2 0 0 1;
#X connect 3 0 0 2;
#X connect 4 0 5 0;
#X connect 6 0 4 1;
#X connect 7 0 8 0;
#X connect 8 0 6 0;
#X restore 95 809 pd vline_curve;
#X msg 95 779 1 0 0 \, 0.7 500 0 \, 0 10000 500;
#N canvas 1620 234 246 207 vline_curve 0;
#X obj 33 100 vline~;
#X obj 33 25 inlet;
#X obj 49 50 inlet;
#X obj 66 75 inlet;
#X obj 33 130 pow~ 2;
#X obj 32 159 outlet~;
#X obj 101 113 sig~;
#X obj 101 25 loadbang;
#X msg 101 51 2;
#X connect 0 0 4 0;
#X connect 1 0 0 0;
#X connect 2 0 0 1;
#X connect 3 0 0 2;
#X connect 4 0 5 0;
#X connect 6 0 4 1;
#X connect 7 0 8 0;
#X connect 8 0 6 0;
#X restore 298 811 pd vline_curve;
#X msg 298 781 1 0 0 \, 0.7 500 0 \, 0 10000 500;
#N canvas 1620 234 246 207 vline_curve 0;
#X obj 33 100 vline~;
#X obj 33 25 inlet;
#X obj 49 50 inlet;
#X obj 66 75 inlet;
#X obj 33 130 pow~ 2;
#X obj 32 159 outlet~;
#X obj 101 113 sig~;
#X obj 101 25 loadbang;
#X msg 101 51 2;
#X connect 0 0 4 0;
#X connect 1 0 0 0;
#X connect 2 0 0 1;
#X connect 3 0 0 2;
#X connect 4 0 5 0;
#X connect 6 0 4 1;
#X connect 7 0 8 0;
#X connect 8 0 6 0;
#X restore 508 811 pd vline_curve;
#X msg 508 781 1 0 0 \, 0.7 500 0 \, 0 10000 500;
#N canvas 1620 234 246 207 vline_curve 0;
#X obj 33 100 vline~;
#X obj 33 25 inlet;
#X obj 49 50 inlet;
#X obj 66 75 inlet;
#X obj 33 130 pow~ 2;
#X obj 32 159 outlet~;
#X obj 101 113 sig~;
#X obj 101 25 loadbang;
#X msg 101 51 2;
#X connect 0 0 4 0;
#X connect 1 0 0 0;
#X connect 2 0 0 1;
#X connect 3 0 0 2;
#X connect 4 0 5 0;
#X connect 6 0 4 1;
#X connect 7 0 8 0;
#X connect 8 0 6 0;
#X restore 698 811 pd vline_curve;
#X obj 298 841 dac~ 5;
#X obj 508 841 dac~ 4;
#X obj 698 841 dac~ 3;
#X msg 698 781 1 0 0 \, 0.7 500 0 \, 0.3 10000 500;
#X obj 167 367 spigot;
#X text 305 305 Prevents jumping;
#X obj 116 367 spigot;
#X obj 269 367 spigot;
#X obj 218 367 spigot;
#X obj 196 213 hsl 150 30 0 5 0 0 empty empty Strum -2 -8 0 10 -4032
-1 -1 13000 0;
#X obj 116 279 t f f;
#X text 30 19 Initialize Trill;
#X text 167 18 Read from Trill;
#X text 107 757 LEDs;
#X text 392 17 Conditions for Karplus-Strong;
#N canvas 249 136 185 281 speed_limiter 0;
#X floatatom 36 117 5 0 0 0 - - -;
#N canvas 0 50 300 425 difference 0;
#X obj 47 25 inlet;
#X obj 47 93 f;
#X obj 47 157 -;
#X obj 47 201 spigot 1;
#X obj 47 375 outlet;
#X obj 77 93 f;
#X obj 77 117 f;
#X obj 47 49 t f b;
#X obj 138 36 loadbang;
#X obj 138 60 f \$1;
#X obj 138 84 sel 2;
#X msg 138 117 0;
#X msg 174 117 1;
#X obj 121 201 spigot 0;
#X obj 121 268 f;
#X obj 151 268 f;
#X obj 151 292 f;
#X obj 121 224 t f b;
#X obj 121 332 -;
#X connect 0 0 7 0;
#X connect 1 0 2 0;
#X connect 2 0 3 0;
#X connect 2 0 13 0;
#X connect 3 0 4 0;
#X connect 5 0 6 0;
#X connect 6 0 2 1;
#X connect 7 0 1 0;
#X connect 7 0 5 1;
#X connect 7 1 5 0;
#X connect 8 0 9 0;
#X connect 9 0 10 0;
#X connect 10 0 11 0;
#X connect 10 0 12 0;
#X connect 11 0 3 1;
#X connect 12 0 13 1;
#X connect 13 0 17 0;
#X connect 14 0 18 0;
#X connect 15 0 16 0;
#X connect 16 0 18 1;
#X connect 17 0 14 0;
#X connect 17 0 15 1;
#X connect 17 1 15 0;
#X connect 18 0 4 0;
#X restore 36 45 pd difference;
#X obj 36 69 abs;
#X obj 36 195 tgl 15 0 empty empty empty 17 7 0 10 -262144 -1 -1 0
1;
#X msg 36 164 0;
#X msg 75 164 1;
#X obj 36 92 min 1;
#X obj 36 140 sel 1;
#X obj 36 22 inlet;
#X obj 36 220 outlet;
#X connect 0 0 7 0;
#X connect 1 0 2 0;
#X connect 2 0 6 0;
#X connect 3 0 9 0;
#X connect 4 0 3 0;
#X connect 5 0 3 0;
#X connect 6 0 0 0;
#X connect 7 0 4 0;
#X connect 7 1 5 0;
#X connect 8 0 1 0;
#X restore 302 323 pd speed_limiter;
#X obj 577 196 loadbang;
#X obj 577 289 s bela_setTrill;
#X msg 577 227 new red 1 SQUARE 40 \, new green 1 SQUARE 41 \, new
blue 1 SQUARE 42 \, new yellow 1 SQUARE 43, f 23;
#X obj 408 383 r bela_trill;
#X obj 408 408 route red green blue yellow, f 83;
#X floatatom 448 457 5 0 0 0 - - -;
#X floatatom 592 457 5 0 0 0 - - -;
#X floatatom 737 457 5 0 0 0 - - -;
#X floatatom 881 457 5 0 0 0 - - -;
#X obj 448 489 tgl 15 0 empty empty empty 17 7 0 10 -262144 -1 -1 0
1;
#X obj 592 489 tgl 15 0 empty empty empty 17 7 0 10 -262144 -1 -1 0
1;
#X obj 737 489 tgl 15 0 empty empty empty 17 7 0 10 -262144 -1 -1 0
1;
#X obj 881 489 tgl 15 0 empty empty empty 17 7 0 10 -262144 -1 -1 0
1;
#X obj 448 550 dac~ 3;
#X obj 737 550 dac~ 5;
#X floatatom 448 509 5 0 0 0 - - -;
#X floatatom 737 509 5 0 0 0 - - -;
#X obj 592 550 dac~ 4;
#X obj 881 550 dac~ 6;
#X floatatom 592 509 5 0 0 0 - - -;
#X floatatom 881 509 5 0 0 0 - - -;
#X obj 370 515 *~ 0.5;
#X obj 490 709 dac~;
#X obj 370 552 *~;
#X obj 510 515 *~ 0.5;
#X obj 510 552 *~;
#X obj 660 515 *~ 0.5;
#X obj 660 552 *~;
#X obj 800 515 *~ 0.5;
#X obj 800 552 *~;
#X obj 370 491 osc~ 110;
#X obj 510 491 osc~ 220;
#X obj 660 491 osc~ 440;
#X obj 801 491 osc~ 880;
#X connect 8 0 10 0;
#X connect 10 0 9 0;
#X connect 11 0 66 0;
#X connect 12 0 11 0;
#X connect 13 0 48 0;
#X connect 15 0 13 0;
#X connect 17 0 18 0;
#X connect 18 0 19 0;
#X connect 19 0 20 0;
#X connect 19 1 14 0;
#X connect 19 2 16 0;
#X connect 19 3 21 0;
#X connect 22 0 15 0;
#X connect 23 0 12 0;
#X connect 24 0 28 0;
#X connect 24 0 50 0;
#X connect 25 0 31 0;
#X connect 25 0 52 0;
#X connect 26 0 29 0;
#X connect 26 0 54 0;
#X connect 27 0 30 0;
#X connect 27 0 59 0;
#X connect 28 0 37 0;
#X connect 29 0 39 0;
#X connect 30 0 40 0;
#X connect 31 0 38 0;
#X connect 32 0 62 0;
#X connect 32 1 60 0;
#X connect 32 2 64 0;
#X connect 32 3 63 0;
#X connect 33 0 44 0;
#X connect 34 0 44 0;
#X connect 35 0 44 0;
#X connect 36 0 44 0;
#X connect 37 0 36 0;
#X connect 38 0 35 0;
#X connect 39 0 34 0;
#X connect 40 0 33 0;
#X connect 42 0 41 0;
#X connect 44 0 7 0;
#X connect 44 0 7 1;
#X connect 45 0 47 0;
#X connect 46 0 42 0;
#X connect 47 0 42 0;
#X connect 48 0 46 0;
#X connect 48 1 42 1;
#X connect 49 0 43 0;
#X connect 50 0 49 0;
#X connect 51 0 56 0;
#X connect 52 0 51 0;
#X connect 53 0 57 0;
#X connect 54 0 53 0;
#X connect 55 0 58 0;
#X connect 59 0 55 0;
#X connect 60 0 25 0;
#X connect 62 0 24 0;
#X connect 63 0 27 0;
#X connect 64 0 26 0;
#X connect 65 0 11 0;
#X connect 66 0 32 0;
#X connect 66 1 71 0;
#X connect 71 0 63 1;
#X connect 71 0 64 1;
#X connect 71 0 60 1;
#X connect 71 0 62 1;
#X connect 72 0 74 0;
#X connect 74 0 73 0;
#X connect 75 0 76 0;
#X connect 76 0 77 0;
#X connect 76 1 78 0;
#X connect 76 2 79 0;
#X connect 76 3 80 0;
#X connect 77 0 81 0;
#X connect 78 0 82 0;
#X connect 79 0 83 0;
#X connect 80 0 84 0;
#X connect 81 0 87 0;
#X connect 82 0 91 0;
#X connect 83 0 88 0;
#X connect 84 0 92 0;
#X connect 87 0 85 0;
#X connect 87 0 95 1;
#X connect 88 0 86 0;
#X connect 88 0 99 1;
#X connect 91 0 89 0;
#X connect 91 0 97 1;
#X connect 92 0 90 0;
#X connect 92 0 101 1;
#X connect 93 0 95 0;
#X connect 95 0 94 0;
#X connect 95 0 94 1;
#X connect 96 0 97 0;
#X connect 97 0 94 0;
#X connect 97 0 94 1;
#X connect 98 0 99 0;
#X connect 99 0 94 1;
#X connect 99 0 94 0;
#X connect 100 0 101 0;
#X connect 101 0 94 1;
#X connect 101 0 94 0;
#X connect 102 0 93 0;
#X connect 103 0 96 0;
#X connect 104 0 98 0;
#X connect 105 0 100 0;
